<?xml version="1.0" encoding="utf-8" standalone="no"?>
<!DOCTYPE svg PUBLIC "-//W3C//DTD SVG 1.1//EN"
  "http://www.w3.org/Graphics/SVG/1.1/DTD/svg11.dtd">
<svg xmlns:xlink="http://www.w3.org/1999/xlink" width="558.432pt" height="797.22pt" viewBox="0 0 558.432 797.22" xmlns="http://www.w3.org/2000/svg" version="1.1">
 <metadata>
  <rdf:RDF xmlns:dc="http://purl.org/dc/elements/1.1/" xmlns:cc="http://creativecommons.org/ns#" xmlns:rdf="http://www.w3.org/1999/02/22-rdf-syntax-ns#">
   <cc:Work>
    <dc:type rdf:resource="http://purl.org/dc/dcmitype/StillImage"/>
    <dc:date>2023-11-17T21:58:06.435133</dc:date>
    <dc:format>image/svg+xml</dc:format>
    <dc:creator>
     <cc:Agent>
      <dc:title>Matplotlib v3.7.2, https://matplotlib.org/</dc:title>
     </cc:Agent>
    </dc:creator>
   </cc:Work>
  </rdf:RDF>
 </metadata>
 <defs>
  <style type="text/css">*{stroke-linejoin: round; stroke-linecap: butt}</style>
 </defs>
 <g id="figure_1">
  <g id="patch_1">
   <path d="M 0 797.22 
L 558.432 797.22 
L 558.432 0 
L 0 0 
L 0 797.22 
z
" style="fill: none"/>
  </g>
  <g id="axes_1">
   <g id="patch_2">
    <path d="M 337.176 93.51 
L 337.604381 93.506601 
L 338.032654 93.496407 
L 338.460712 93.479418 
L 338.888446 93.45564 
L 339.315749 93.425079 
L 339.742513 93.387742 
L 340.168631 93.343639 
L 340.593996 93.29278 
L 341.018501 93.235179 
L 341.442038 93.17085 
L 341.864501 93.099809 
L 342.285784 93.022075 
L 342.70578 92.937666 
L 343.124384 92.846604 
L 343.541491 92.748912 
L 343.956996 92.644615 
L 344.370793 92.533738 
L 344.782779 92.41631 
L 345.19285 92.292361 
L 345.600903 92.16192 
L 346.006835 92.025022 
L 346.410544 91.881701 
L 346.811928 91.731992 
L 347.210886 91.575934 
L 347.607318 91.413566 
L 348.001124 91.244928 
L 348.392205 91.070064 
L 348.780463 90.889017 
L 349.165799 90.701832 
L 349.548116 90.508557 
L 349.927319 90.309241 
L 350.303312 90.103933 
L 350.676 89.892686 
L 351.04529 89.675552 
L 351.411088 89.452587 
L 351.773302 89.223845 
L 352.131842 88.989386 
L 352.486616 88.749268 
L 352.837537 88.503551 
L 353.184514 88.252297 
L 353.527462 87.99557 
L 353.866293 87.733434 
L 354.200922 87.465955 
L 354.531265 87.1932 
L 354.85724 86.915239 
L 355.178763 86.63214 
L 355.495754 86.343976 
L 355.808133 86.050819 
L 356.115822 85.752743 
L 356.418743 85.449822 
L 356.716819 85.142133 
L 357.009976 84.829754 
L 357.29814 84.512763 
L 357.581239 84.19124 
L 357.8592 83.865265 
L 358.131955 83.534922 
L 358.399434 83.200293 
L 358.66157 82.861462 
L 358.918297 82.518514 
L 359.169551 82.171537 
L 359.415268 81.820616 
L 359.655386 81.465842 
L 359.889845 81.107302 
L 360.118587 80.745088 
L 360.341552 80.37929 
L 360.558686 80.01 
L 360.769933 79.637312 
L 360.975241 79.261319 
L 361.174557 78.882116 
L 361.367832 78.499799 
L 361.555017 78.114463 
L 361.736064 77.726205 
L 361.910928 77.335124 
L 362.079566 76.941318 
L 362.241934 76.544886 
L 362.397992 76.145928 
L 362.547701 75.744544 
L 362.691022 75.340835 
L 362.82792 74.934903 
L 362.958361 74.52685 
L 363.08231 74.116779 
L 363.199738 73.704793 
L 363.310615 73.290996 
L 363.414912 72.875491 
L 363.512604 72.458384 
L 363.603666 72.03978 
L 363.688075 71.619784 
L 363.765809 71.198501 
L 363.83685 70.776038 
L 363.901179 70.352501 
L 363.95878 69.927996 
L 364.009639 69.502631 
L 364.053742 69.076513 
L 364.091079 68.649749 
L 364.12164 68.222446 
L 364.145418 67.794712 
L 364.162407 67.366654 
L 364.172601 66.938381 
L 364.176 66.51 
L 364.176 66.51 
L 364.172601 66.081619 
L 364.162407 65.653346 
L 364.145418 65.225288 
L 364.12164 64.797554 
L 364.091079 64.370251 
L 364.053742 63.943487 
L 364.009639 63.517369 
L 363.95878 63.092004 
L 363.901179 62.667499 
L 363.83685 62.243962 
L 363.765809 61.821499 
L 363.688075 61.400216 
L 363.603666 60.98022 
L 363.512604 60.561616 
L 363.414912 60.144509 
L 363.310615 59.729004 
L 363.199738 59.315207 
L 363.08231 58.903221 
L 362.958361 58.49315 
L 362.82792 58.085097 
L 362.691022 57.679165 
L 362.547701 57.275456 
L 362.397992 56.874072 
L 362.241934 56.475114 
L 362.079566 56.078682 
L 361.910928 55.684876 
L 361.736064 55.293795 
L 361.555017 54.905537 
L 361.367832 54.520201 
L 361.174557 54.137884 
L 360.975241 53.758681 
L 360.769933 53.382688 
L 360.558686 53.01 
L 360.341552 52.64071 
L 360.118587 52.274912 
L 359.889845 51.912698 
L 359.655386 51.554158 
L 359.415268 51.199384 
L 359.169551 50.848463 
L 358.918297 50.501486 
L 358.66157 50.158538 
L 358.399434 49.819707 
L 358.131955 49.485078 
L 357.8592 49.154735 
L 357.581239 48.82876 
L 357.29814 48.507237 
L 357.009976 48.190246 
L 356.716819 47.877867 
L 356.418743 47.570178 
L 356.115822 47.267257 
L 355.808133 46.969181 
L 355.495754 46.676024 
L 355.178763 46.38786 
L 354.85724 46.104761 
L 354.531265 45.8268 
L 354.200922 45.554045 
L 353.866293 45.286566 
L 353.527462 45.02443 
L 353.184514 44.767703 
L 352.837537 44.516449 
L 352.486616 44.270732 
L 352.131842 44.030614 
L 351.773302 43.796155 
L 351.411088 43.567413 
L 351.04529 43.344448 
L 350.676 43.127314 
L 350.303312 42.916067 
L 349.927319 42.710759 
L 349.548116 42.511443 
L 349.165799 42.318168 
L 348.780463 42.130983 
L 348.392205 41.949936 
L 348.001124 41.775072 
L 347.607318 41.606434 
L 347.210886 41.444066 
L 346.811928 41.288008 
L 346.410544 41.138299 
L 346.006835 40.994978 
L 345.600903 40.85808 
L 345.19285 40.727639 
L 344.782779 40.60369 
L 344.370793 40.486262 
L 343.956996 40.375385 
L 343.541491 40.271088 
L 343.124384 40.173396 
L 342.70578 40.082334 
L 342.285784 39.997925 
L 341.864501 39.920191 
L 341.442038 39.84915 
L 341.018501 39.784821 
L 340.593996 39.72722 
L 340.168631 39.676361 
L 339.742513 39.632258 
L 339.315749 39.594921 
L 338.888446 39.56436 
L 338.460712 39.540582 
L 338.032654 39.523593 
L 337.604381 39.513399 
L 337.176 39.51 
L 247.176 39.51 
L 246.747619 39.513399 
L 246.319346 39.523593 
L 245.891288 39.540582 
L 245.463554 39.56436 
L 245.036251 39.594921 
L 244.609487 39.632258 
L 244.183369 39.676361 
L 243.758004 39.72722 
L 243.333499 39.784821 
L 242.909962 39.84915 
L 242.487499 39.920191 
L 242.066216 39.997925 
L 241.64622 40.082334 
L 241.227616 40.173396 
L 240.810509 40.271088 
L 240.395004 40.375385 
L 239.981207 40.486262 
L 239.569221 40.60369 
L 239.15915 40.727639 
L 238.751097 40.85808 
L 238.345165 40.994978 
L 237.941456 41.138299 
L 237.540072 41.288008 
L 237.141114 41.444066 
L 236.744682 41.606434 
L 236.350876 41.775072 
L 235.959795 41.949936 
L 235.571537 42.130983 
L 235.186201 42.318168 
L 234.803884 42.511443 
L 234.424681 42.710759 
L 234.048688 42.916067 
L 233.676 43.127314 
L 233.30671 43.344448 
L 232.940912 43.567413 
L 232.578698 43.796155 
L 232.220158 44.030614 
L 231.865384 44.270732 
L 231.514463 44.516449 
L 231.167486 44.767703 
L 230.824538 45.02443 
L 230.485707 45.286566 
L 230.151078 45.554045 
L 229.820735 45.8268 
L 229.49476 46.104761 
L 229.173237 46.38786 
L 228.856246 46.676024 
L 228.543867 46.969181 
L 228.236178 47.267257 
L 227.933257 47.570178 
L 227.635181 47.877867 
L 227.342024 48.190246 
L 227.05386 48.507237 
L 226.770761 48.82876 
L 226.4928 49.154735 
L 226.220045 49.485078 
L 225.952566 49.819707 
L 225.69043 50.158538 
L 225.433703 50.501486 
L 225.182449 50.848463 
L 224.936732 51.199384 
L 224.696614 51.554158 
L 224.462155 51.912698 
L 224.233413 52.274912 
L 224.010448 52.64071 
L 223.793314 53.01 
L 223.582067 53.382688 
L 223.376759 53.758681 
L 223.177443 54.137884 
L 222.984168 54.520201 
L 222.796983 54.905537 
L 222.615936 55.293795 
L 222.441072 55.684876 
L 222.272434 56.078682 
L 222.110066 56.475114 
L 221.954008 56.874072 
L 221.804299 57.275456 
L 221.660978 57.679165 
L 221.52408 58.085097 
L 221.393639 58.49315 
L 221.26969 58.903221 
L 221.152262 59.315207 
L 221.041385 59.729004 
L 220.937088 60.144509 
L 220.839396 60.561616 
L 220.748334 60.98022 
L 220.663925 61.400216 
L 220.586191 61.821499 
L 220.51515 62.243962 
L 220.450821 62.667499 
L 220.39322 63.092004 
L 220.342361 63.517369 
L 220.298258 63.943487 
L 220.260921 64.370251 
L 220.23036 64.797554 
L 220.206582 65.225288 
L 220.189593 65.653346 
L 220.179399 66.081619 
L 220.176 66.51 
L 220.176 66.51 
L 220.179399 66.938381 
L 220.189593 67.366654 
L 220.206582 67.794712 
L 220.23036 68.222446 
L 220.260921 68.649749 
L 220.298258 69.076513 
L 220.342361 69.502631 
L 220.39322 69.927996 
L 220.450821 70.352501 
L 220.51515 70.776038 
L 220.586191 71.198501 
L 220.663925 71.619784 
L 220.748334 72.03978 
L 220.839396 72.458384 
L 220.937088 72.875491 
L 221.041385 73.290996 
L 221.152262 73.704793 
L 221.26969 74.116779 
L 221.393639 74.52685 
L 221.52408 74.934903 
L 221.660978 75.340835 
L 221.804299 75.744544 
L 221.954008 76.145928 
L 222.110066 76.544886 
L 222.272434 76.941318 
L 222.441072 77.335124 
L 222.615936 77.726205 
L 222.796983 78.114463 
L 222.984168 78.499799 
L 223.177443 78.882116 
L 223.376759 79.261319 
L 223.582067 79.637312 
L 223.793314 80.01 
L 224.010448 80.37929 
L 224.233413 80.745088 
L 224.462155 81.107302 
L 224.696614 81.465842 
L 224.936732 81.820616 
L 225.182449 82.171537 
L 225.433703 82.518514 
L 225.69043 82.861462 
L 225.952566 83.200293 
L 226.220045 83.534922 
L 226.4928 83.865265 
L 226.770761 84.19124 
L 227.05386 84.512763 
L 227.342024 84.829754 
L 227.635181 85.142133 
L 227.933257 85.449822 
L 228.236178 85.752743 
L 228.543867 86.050819 
L 228.856246 86.343976 
L 229.173237 86.63214 
L 229.49476 86.915239 
L 229.820735 87.1932 
L 230.151078 87.465955 
L 230.485707 87.733434 
L 230.824538 87.99557 
L 231.167486 88.252297 
L 231.514463 88.503551 
L 231.865384 88.749268 
L 232.220158 88.989386 
L 232.578698 89.223845 
L 232.940912 89.452587 
L 233.30671 89.675552 
L 233.676 89.892686 
L 234.048688 90.103933 
L 234.424681 90.309241 
L 234.803884 90.508557 
L 235.186201 90.701832 
L 235.571537 90.889017 
L 235.959795 91.070064 
L 236.350876 91.244928 
L 236.744682 91.413566 
L 237.141114 91.575934 
L 237.540072 91.731992 
L 237.941456 91.881701 
L 238.345165 92.025022 
L 238.751097 92.16192 
L 239.15915 92.292361 
L 239.569221 92.41631 
L 239.981207 92.533738 
L 240.395004 92.644615 
L 240.810509 92.748912 
L 241.227616 92.846604 
L 241.64622 92.937666 
L 242.066216 93.022075 
L 242.487499 93.099809 
L 242.909962 93.17085 
L 243.333499 93.235179 
L 243.758004 93.29278 
L 244.183369 93.343639 
L 244.609487 93.387742 
L 245.036251 93.425079 
L 245.463554 93.45564 
L 245.891288 93.479418 
L 246.319346 93.496407 
L 246.747619 93.506601 
L 247.176 93.51 
L 337.176 93.51 
z
" clip-path="url(#p00093d22d3)" style="fill: none; stroke: #000000; stroke-width: 2; stroke-linecap: round"/>
   </g>
   <g id="patch_3">
    <path d="M 220.176 327.06 
L 292.176 266.31 
L 364.176 327.06 
L 292.176 387.81 
L 220.176 327.06 
z
" clip-path="url(#p00093d22d3)" style="fill: none; stroke: #000000; stroke-width: 2; stroke-linecap: round"/>
   </g>
   <g id="patch_4">
    <path d="M 220.176 621.36 
L 292.176 560.61 
L 364.176 621.36 
L 292.176 682.11 
L 220.176 621.36 
z
" clip-path="url(#p00093d22d3)" style="fill: none; stroke: #000000; stroke-width: 2; stroke-linecap: round"/>
   </g>
   <g id="patch_5">
    <path d="M 355.176 757.71 
L 355.604381 757.706601 
L 356.032654 757.696407 
L 356.460712 757.679418 
L 356.888446 757.65564 
L 357.315749 757.625079 
L 357.742513 757.587742 
L 358.168631 757.543639 
L 358.593996 757.49278 
L 359.018501 757.435179 
L 359.442038 757.37085 
L 359.864501 757.299809 
L 360.285784 757.222075 
L 360.70578 757.137666 
L 361.124384 757.046604 
L 361.541491 756.948912 
L 361.956996 756.844615 
L 362.370793 756.733738 
L 362.782779 756.61631 
L 363.19285 756.492361 
L 363.600903 756.36192 
L 364.006835 756.225022 
L 364.410544 756.081701 
L 364.811928 755.931992 
L 365.210886 755.775934 
L 365.607318 755.613566 
L 366.001124 755.444928 
L 366.392205 755.270064 
L 366.780463 755.089017 
L 367.165799 754.901832 
L 367.548116 754.708557 
L 367.927319 754.509241 
L 368.303312 754.303933 
L 368.676 754.092686 
L 369.04529 753.875552 
L 369.411088 753.652587 
L 369.773302 753.423845 
L 370.131842 753.189386 
L 370.486616 752.949268 
L 370.837537 752.703551 
L 371.184514 752.452297 
L 371.527462 752.19557 
L 371.866293 751.933434 
L 372.200922 751.665955 
L 372.531265 751.3932 
L 372.85724 751.115239 
L 373.178763 750.83214 
L 373.495754 750.543976 
L 373.808133 750.250819 
L 374.115822 749.952743 
L 374.418743 749.649822 
L 374.716819 749.342133 
L 375.009976 749.029754 
L 375.29814 748.712763 
L 375.581239 748.39124 
L 375.8592 748.065265 
L 376.131955 747.734922 
L 376.399434 747.400293 
L 376.66157 747.061462 
L 376.918297 746.718514 
L 377.169551 746.371537 
L 377.415268 746.020616 
L 377.655386 745.665842 
L 377.889845 745.307302 
L 378.118587 744.945088 
L 378.341552 744.57929 
L 378.558686 744.21 
L 378.769933 743.837312 
L 378.975241 743.461319 
L 379.174557 743.082116 
L 379.367832 742.699799 
L 379.555017 742.314463 
L 379.736064 741.926205 
L 379.910928 741.535124 
L 380.079566 741.141318 
L 380.241934 740.744886 
L 380.397992 740.345928 
L 380.547701 739.944544 
L 380.691022 739.540835 
L 380.82792 739.134903 
L 380.958361 738.72685 
L 381.08231 738.316779 
L 381.199738 737.904793 
L 381.310615 737.490996 
L 381.414912 737.075491 
L 381.512604 736.658384 
L 381.603666 736.23978 
L 381.688075 735.819784 
L 381.765809 735.398501 
L 381.83685 734.976038 
L 381.901179 734.552501 
L 381.95878 734.127996 
L 382.009639 733.702631 
L 382.053742 733.276513 
L 382.091079 732.849749 
L 382.12164 732.422446 
L 382.145418 731.994712 
L 382.162407 731.566654 
L 382.172601 731.138381 
L 382.176 730.71 
L 382.176 730.71 
L 382.172601 730.281619 
L 382.162407 729.853346 
L 382.145418 729.425288 
L 382.12164 728.997554 
L 382.091079 728.570251 
L 382.053742 728.143487 
L 382.009639 727.717369 
L 381.95878 727.292004 
L 381.901179 726.867499 
L 381.83685 726.443962 
L 381.765809 726.021499 
L 381.688075 725.600216 
L 381.603666 725.18022 
L 381.512604 724.761616 
L 381.414912 724.344509 
L 381.310615 723.929004 
L 381.199738 723.515207 
L 381.08231 723.103221 
L 380.958361 722.69315 
L 380.82792 722.285097 
L 380.691022 721.879165 
L 380.547701 721.475456 
L 380.397992 721.074072 
L 380.241934 720.675114 
L 380.079566 720.278682 
L 379.910928 719.884876 
L 379.736064 719.493795 
L 379.555017 719.105537 
L 379.367832 718.720201 
L 379.174557 718.337884 
L 378.975241 717.958681 
L 378.769933 717.582688 
L 378.558686 717.21 
L 378.341552 716.84071 
L 378.118587 716.474912 
L 377.889845 716.112698 
L 377.655386 715.754158 
L 377.415268 715.399384 
L 377.169551 715.048463 
L 376.918297 714.701486 
L 376.66157 714.358538 
L 376.399434 714.019707 
L 376.131955 713.685078 
L 375.8592 713.354735 
L 375.581239 713.02876 
L 375.29814 712.707237 
L 375.009976 712.390246 
L 374.716819 712.077867 
L 374.418743 711.770178 
L 374.115822 711.467257 
L 373.808133 711.169181 
L 373.495754 710.876024 
L 373.178763 710.58786 
L 372.85724 710.304761 
L 372.531265 710.0268 
L 372.200922 709.754045 
L 371.866293 709.486566 
L 371.527462 709.22443 
L 371.184514 708.967703 
L 370.837537 708.716449 
L 370.486616 708.470732 
L 370.131842 708.230614 
L 369.773302 707.996155 
L 369.411088 707.767413 
L 369.04529 707.544448 
L 368.676 707.327314 
L 368.303312 707.116067 
L 367.927319 706.910759 
L 367.548116 706.711443 
L 367.165799 706.518168 
L 366.780463 706.330983 
L 366.392205 706.149936 
L 366.001124 705.975072 
L 365.607318 705.806434 
L 365.210886 705.644066 
L 364.811928 705.488008 
L 364.410544 705.338299 
L 364.006835 705.194978 
L 363.600903 705.05808 
L 363.19285 704.927639 
L 362.782779 704.80369 
L 362.370793 704.686262 
L 361.956996 704.575385 
L 361.541491 704.471088 
L 361.124384 704.373396 
L 360.70578 704.282334 
L 360.285784 704.197925 
L 359.864501 704.120191 
L 359.442038 704.04915 
L 359.018501 703.984821 
L 358.593996 703.92722 
L 358.168631 703.876361 
L 357.742513 703.832258 
L 357.315749 703.794921 
L 356.888446 703.76436 
L 356.460712 703.740582 
L 356.032654 703.723593 
L 355.604381 703.713399 
L 355.176 703.71 
L 229.176 703.71 
L 228.747619 703.713399 
L 228.319346 703.723593 
L 227.891288 703.740582 
L 227.463554 703.76436 
L 227.036251 703.794921 
L 226.609487 703.832258 
L 226.183369 703.876361 
L 225.758004 703.92722 
L 225.333499 703.984821 
L 224.909962 704.04915 
L 224.487499 704.120191 
L 224.066216 704.197925 
L 223.64622 704.282334 
L 223.227616 704.373396 
L 222.810509 704.471088 
L 222.395004 704.575385 
L 221.981207 704.686262 
L 221.569221 704.80369 
L 221.15915 704.927639 
L 220.751097 705.05808 
L 220.345165 705.194978 
L 219.941456 705.338299 
L 219.540072 705.488008 
L 219.141114 705.644066 
L 218.744682 705.806434 
L 218.350876 705.975072 
L 217.959795 706.149936 
L 217.571537 706.330983 
L 217.186201 706.518168 
L 216.803884 706.711443 
L 216.424681 706.910759 
L 216.048688 707.116067 
L 215.676 707.327314 
L 215.30671 707.544448 
L 214.940912 707.767413 
L 214.578698 707.996155 
L 214.220158 708.230614 
L 213.865384 708.470732 
L 213.514463 708.716449 
L 213.167486 708.967703 
L 212.824538 709.22443 
L 212.485707 709.486566 
L 212.151078 709.754045 
L 211.820735 710.0268 
L 211.49476 710.304761 
L 211.173237 710.58786 
L 210.856246 710.876024 
L 210.543867 711.169181 
L 210.236178 711.467257 
L 209.933257 711.770178 
L 209.635181 712.077867 
L 209.342024 712.390246 
L 209.05386 712.707237 
L 208.770761 713.02876 
L 208.4928 713.354735 
L 208.220045 713.685078 
L 207.952566 714.019707 
L 207.69043 714.358538 
L 207.433703 714.701486 
L 207.182449 715.048463 
L 206.936732 715.399384 
L 206.696614 715.754158 
L 206.462155 716.112698 
L 206.233413 716.474912 
L 206.010448 716.84071 
L 205.793314 717.21 
L 205.582067 717.582688 
L 205.376759 717.958681 
L 205.177443 718.337884 
L 204.984168 718.720201 
L 204.796983 719.105537 
L 204.615936 719.493795 
L 204.441072 719.884876 
L 204.272434 720.278682 
L 204.110066 720.675114 
L 203.954008 721.074072 
L 203.804299 721.475456 
L 203.660978 721.879165 
L 203.52408 722.285097 
L 203.393639 722.69315 
L 203.26969 723.103221 
L 203.152262 723.515207 
L 203.041385 723.929004 
L 202.937088 724.344509 
L 202.839396 724.761616 
L 202.748334 725.18022 
L 202.663925 725.600216 
L 202.586191 726.021499 
L 202.51515 726.443962 
L 202.450821 726.867499 
L 202.39322 727.292004 
L 202.342361 727.717369 
L 202.298258 728.143487 
L 202.260921 728.570251 
L 202.23036 728.997554 
L 202.206582 729.425288 
L 202.189593 729.853346 
L 202.179399 730.281619 
L 202.176 730.71 
L 202.176 730.71 
L 202.179399 731.138381 
L 202.189593 731.566654 
L 202.206582 731.994712 
L 202.23036 732.422446 
L 202.260921 732.849749 
L 202.298258 733.276513 
L 202.342361 733.702631 
L 202.39322 734.127996 
L 202.450821 734.552501 
L 202.51515 734.976038 
L 202.586191 735.398501 
L 202.663925 735.819784 
L 202.748334 736.23978 
L 202.839396 736.658384 
L 202.937088 737.075491 
L 203.041385 737.490996 
L 203.152262 737.904793 
L 203.26969 738.316779 
L 203.393639 738.72685 
L 203.52408 739.134903 
L 203.660978 739.540835 
L 203.804299 739.944544 
L 203.954008 740.345928 
L 204.110066 740.744886 
L 204.272434 741.141318 
L 204.441072 741.535124 
L 204.615936 741.926205 
L 204.796983 742.314463 
L 204.984168 742.699799 
L 205.177443 743.082116 
L 205.376759 743.461319 
L 205.582067 743.837312 
L 205.793314 744.21 
L 206.010448 744.57929 
L 206.233413 744.945088 
L 206.462155 745.307302 
L 206.696614 745.665842 
L 206.936732 746.020616 
L 207.182449 746.371537 
L 207.433703 746.718514 
L 207.69043 747.061462 
L 207.952566 747.400293 
L 208.220045 747.734922 
L 208.4928 748.065265 
L 208.770761 748.39124 
L 209.05386 748.712763 
L 209.342024 749.029754 
L 209.635181 749.342133 
L 209.933257 749.649822 
L 210.236178 749.952743 
L 210.543867 750.250819 
L 210.856246 750.543976 
L 211.173237 750.83214 
L 211.49476 751.115239 
L 211.820735 751.3932 
L 212.151078 751.665955 
L 212.485707 751.933434 
L 212.824538 752.19557 
L 213.167486 752.452297 
L 213.514463 752.703551 
L 213.865384 752.949268 
L 214.220158 753.189386 
L 214.578698 753.423845 
L 214.940912 753.652587 
L 215.30671 753.875552 
L 215.676 754.092686 
L 216.048688 754.303933 
L 216.424681 754.509241 
L 216.803884 754.708557 
L 217.186201 754.901832 
L 217.571537 755.089017 
L 217.959795 755.270064 
L 218.350876 755.444928 
L 218.744682 755.613566 
L 219.141114 755.775934 
L 219.540072 755.931992 
L 219.941456 756.081701 
L 220.345165 756.225022 
L 220.751097 756.36192 
L 221.15915 756.492361 
L 221.569221 756.61631 
L 221.981207 756.733738 
L 222.395004 756.844615 
L 222.810509 756.948912 
L 223.227616 757.046604 
L 223.64622 757.137666 
L 224.066216 757.222075 
L 224.487499 757.299809 
L 224.909962 757.37085 
L 225.333499 757.435179 
L 225.758004 757.49278 
L 226.183369 757.543639 
L 226.609487 757.587742 
L 227.036251 757.625079 
L 227.463554 757.65564 
L 227.891288 757.679418 
L 228.319346 757.696407 
L 228.747619 757.706601 
L 229.176 757.71 
L 355.176 757.71 
z
" clip-path="url(#p00093d22d3)" style="fill: none; stroke: #000000; stroke-width: 2; stroke-linecap: round"/>
   </g>
   <g id="patch_6">
    <path d="M 28.656 327.06 
L 100.656 266.31 
L 172.656 327.06 
L 100.656 387.81 
L 28.656 327.06 
z
" clip-path="url(#p00093d22d3)" style="fill: none; stroke: #000000; stroke-width: 2; stroke-linecap: round"/>
   </g>
   <g id="line2d_1">
    <path d="M 292.176 93.51 
L 292.176 104.31 
L 292.176 106.11 
" clip-path="url(#p00093d22d3)" style="fill: none; stroke: #000000; stroke-width: 2; stroke-linecap: round"/>
   </g>
   <g id="patch_7">
    <path d="M 294.876 106.11 
L 292.176 115.11 
L 289.476 106.11 
z
" clip-path="url(#p00093d22d3)"/>
   </g>
   <g id="line2d_2">
    <path d="M 212.976 142.11 
L 212.976 115.11 
L 371.376 115.11 
L 371.376 169.11 
L 212.976 169.11 
L 212.976 142.11 
" clip-path="url(#p00093d22d3)" style="fill: none; stroke: #000000; stroke-width: 2; stroke-linecap: round"/>
   </g>
   <g id="line2d_3">
    <path d="M 292.176 169.11 
L 292.176 179.91 
L 292.176 181.71 
" clip-path="url(#p00093d22d3)" style="fill: none; stroke: #000000; stroke-width: 2; stroke-linecap: round"/>
   </g>
   <g id="patch_8">
    <path d="M 294.876 181.71 
L 292.176 190.71 
L 289.476 181.71 
z
" clip-path="url(#p00093d22d3)"/>
   </g>
   <g id="line2d_4">
    <path d="M 220.176 217.71 
L 220.176 190.71 
L 364.176 190.71 
L 364.176 244.71 
L 220.176 244.71 
L 220.176 217.71 
" clip-path="url(#p00093d22d3)" style="fill: none; stroke: #000000; stroke-width: 2; stroke-linecap: round"/>
   </g>
   <g id="line2d_5">
    <path d="M 292.176 244.71 
L 292.176 255.51 
L 292.176 257.31 
" clip-path="url(#p00093d22d3)" style="fill: none; stroke: #000000; stroke-width: 2; stroke-linecap: round"/>
   </g>
   <g id="patch_9">
    <path d="M 294.876 257.31 
L 292.176 266.31 
L 289.476 257.31 
z
" clip-path="url(#p00093d22d3)"/>
   </g>
   <g id="line2d_6">
    <path d="M 292.176 387.81 
L 292.176 398.61 
L 292.176 400.41 
" clip-path="url(#p00093d22d3)" style="fill: none; stroke: #000000; stroke-width: 2; stroke-linecap: round"/>
   </g>
   <g id="patch_10">
    <path d="M 294.876 400.41 
L 292.176 409.41 
L 289.476 400.41 
z
" clip-path="url(#p00093d22d3)"/>
   </g>
   <g id="line2d_7">
    <path d="M 220.176 436.41 
L 220.176 409.41 
L 364.176 409.41 
L 364.176 463.41 
L 220.176 463.41 
L 220.176 436.41 
" clip-path="url(#p00093d22d3)" style="fill: none; stroke: #000000; stroke-width: 2; stroke-linecap: round"/>
   </g>
   <g id="line2d_8">
    <path d="M 292.176 463.41 
L 292.176 474.21 
L 292.176 476.01 
" clip-path="url(#p00093d22d3)" style="fill: none; stroke: #000000; stroke-width: 2; stroke-linecap: round"/>
   </g>
   <g id="patch_11">
    <path d="M 294.876 476.01 
L 292.176 485.01 
L 289.476 476.01 
z
" clip-path="url(#p00093d22d3)"/>
   </g>
   <g id="line2d_9">
    <path d="M 220.176 512.01 
L 220.176 485.01 
L 364.176 485.01 
L 364.176 539.01 
L 220.176 539.01 
L 220.176 512.01 
" clip-path="url(#p00093d22d3)" style="fill: none; stroke: #000000; stroke-width: 2; stroke-linecap: round"/>
   </g>
   <g id="line2d_10">
    <path d="M 292.176 539.01 
L 292.176 549.81 
L 292.176 551.61 
" clip-path="url(#p00093d22d3)" style="fill: none; stroke: #000000; stroke-width: 2; stroke-linecap: round"/>
   </g>
   <g id="patch_12">
    <path d="M 294.876 551.61 
L 292.176 560.61 
L 289.476 551.61 
z
" clip-path="url(#p00093d22d3)"/>
   </g>
   <g id="line2d_11">
    <path d="M 292.176 682.11 
L 292.176 692.91 
L 292.176 694.71 
" clip-path="url(#p00093d22d3)" style="fill: none; stroke: #000000; stroke-width: 2; stroke-linecap: round"/>
   </g>
   <g id="patch_13">
    <path d="M 294.876 694.71 
L 292.176 703.71 
L 289.476 694.71 
z
" clip-path="url(#p00093d22d3)"/>
   </g>
   <g id="line2d_12">
    <path d="M 385.776 621.36 
L 385.776 594.36 
L 529.776 594.36 
L 529.776 648.36 
L 385.776 648.36 
L 385.776 621.36 
" clip-path="url(#p00093d22d3)" style="fill: none; stroke: #000000; stroke-width: 2; stroke-linecap: round"/>
   </g>
   <g id="line2d_13">
    <path d="M 457.776 594.36 
L 457.776 142.11 
L 380.376 142.11 
" clip-path="url(#p00093d22d3)" style="fill: none; stroke: #000000; stroke-width: 2; stroke-linecap: round"/>
   </g>
   <g id="patch_14">
    <path d="M 380.376 144.81 
L 371.376 142.11 
L 380.376 139.41 
z
" clip-path="url(#p00093d22d3)"/>
   </g>
   <g id="line2d_14">
    <path d="M 364.176 621.36 
L 376.776 621.36 
" clip-path="url(#p00093d22d3)" style="fill: none; stroke: #000000; stroke-width: 2; stroke-linecap: round"/>
   </g>
   <g id="patch_15">
    <path d="M 376.776 618.66 
L 385.776 621.36 
L 376.776 624.06 
z
" clip-path="url(#p00093d22d3)"/>
   </g>
   <g id="line2d_15">
    <path d="M 457.776 648.36 
L 457.776 730.71 
L 391.176 730.71 
" clip-path="url(#p00093d22d3)" style="fill: none; stroke: #000000; stroke-width: 2; stroke-linecap: round"/>
   </g>
   <g id="patch_16">
    <path d="M 391.176 733.41 
L 382.176 730.71 
L 391.176 728.01 
z
" clip-path="url(#p00093d22d3)"/>
   </g>
   <g id="line2d_16">
    <path d="M 220.176 327.06 
L 181.656 327.06 
" clip-path="url(#p00093d22d3)" style="fill: none; stroke: #000000; stroke-width: 2; stroke-linecap: round"/>
   </g>
   <g id="patch_17">
    <path d="M 181.656 329.76 
L 172.656 327.06 
L 181.656 324.36 
z
" clip-path="url(#p00093d22d3)"/>
   </g>
   <g id="line2d_17">
    <path d="M 100.656 266.31 
L 100.656 142.11 
L 203.976 142.11 
" clip-path="url(#p00093d22d3)" style="fill: none; stroke: #000000; stroke-width: 2; stroke-linecap: round"/>
   </g>
   <g id="patch_18">
    <path d="M 203.976 139.41 
L 212.976 142.11 
L 203.976 144.81 
z
" clip-path="url(#p00093d22d3)"/>
   </g>
   <g id="line2d_18">
    <path d="M 100.656 387.81 
L 100.656 436.41 
L 211.176 436.41 
" clip-path="url(#p00093d22d3)" style="fill: none; stroke: #000000; stroke-width: 2; stroke-linecap: round"/>
   </g>
   <g id="patch_19">
    <path d="M 211.176 433.71 
L 220.176 436.41 
L 211.176 439.11 
z
" clip-path="url(#p00093d22d3)"/>
   </g>
   <g id="text_1">
    <!-- Start -->
    <g transform="translate(276.908422 69.959219) scale(0.125 -0.125)">
     <defs>
      <path id="DejaVuSans-53" d="M 3425 4513 
L 3425 3897 
Q 3066 4069 2747 4153 
Q 2428 4238 2131 4238 
Q 1616 4238 1336 4038 
Q 1056 3838 1056 3469 
Q 1056 3159 1242 3001 
Q 1428 2844 1947 2747 
L 2328 2669 
Q 3034 2534 3370 2195 
Q 3706 1856 3706 1288 
Q 3706 609 3251 259 
Q 2797 -91 1919 -91 
Q 1588 -91 1214 -16 
Q 841 59 441 206 
L 441 856 
Q 825 641 1194 531 
Q 1563 422 1919 422 
Q 2459 422 2753 634 
Q 3047 847 3047 1241 
Q 3047 1584 2836 1778 
Q 2625 1972 2144 2069 
L 1759 2144 
Q 1053 2284 737 2584 
Q 422 2884 422 3419 
Q 422 4038 858 4394 
Q 1294 4750 2059 4750 
Q 2388 4750 2728 4690 
Q 3069 4631 3425 4513 
z
" transform="scale(0.015625)"/>
      <path id="DejaVuSans-74" d="M 1172 4494 
L 1172 3500 
L 2356 3500 
L 2356 3053 
L 1172 3053 
L 1172 1153 
Q 1172 725 1289 603 
Q 1406 481 1766 481 
L 2356 481 
L 2356 0 
L 1766 0 
Q 1100 0 847 248 
Q 594 497 594 1153 
L 594 3053 
L 172 3053 
L 172 3500 
L 594 3500 
L 594 4494 
L 1172 4494 
z
" transform="scale(0.015625)"/>
      <path id="DejaVuSans-61" d="M 2194 1759 
Q 1497 1759 1228 1600 
Q 959 1441 959 1056 
Q 959 750 1161 570 
Q 1363 391 1709 391 
Q 2188 391 2477 730 
Q 2766 1069 2766 1631 
L 2766 1759 
L 2194 1759 
z
M 3341 1997 
L 3341 0 
L 2766 0 
L 2766 531 
Q 2569 213 2275 61 
Q 1981 -91 1556 -91 
Q 1019 -91 701 211 
Q 384 513 384 1019 
Q 384 1609 779 1909 
Q 1175 2209 1959 2209 
L 2766 2209 
L 2766 2266 
Q 2766 2663 2505 2880 
Q 2244 3097 1772 3097 
Q 1472 3097 1187 3025 
Q 903 2953 641 2809 
L 641 3341 
Q 956 3463 1253 3523 
Q 1550 3584 1831 3584 
Q 2591 3584 2966 3190 
Q 3341 2797 3341 1997 
z
" transform="scale(0.015625)"/>
      <path id="DejaVuSans-72" d="M 2631 2963 
Q 2534 3019 2420 3045 
Q 2306 3072 2169 3072 
Q 1681 3072 1420 2755 
Q 1159 2438 1159 1844 
L 1159 0 
L 581 0 
L 581 3500 
L 1159 3500 
L 1159 2956 
Q 1341 3275 1631 3429 
Q 1922 3584 2338 3584 
Q 2397 3584 2469 3576 
Q 2541 3569 2628 3553 
L 2631 2963 
z
" transform="scale(0.015625)"/>
     </defs>
     <use xlink:href="#DejaVuSans-53"/>
     <use xlink:href="#DejaVuSans-74" x="63.476562"/>
     <use xlink:href="#DejaVuSans-61" x="102.685547"/>
     <use xlink:href="#DejaVuSans-72" x="163.964844"/>
     <use xlink:href="#DejaVuSans-74" x="205.078125"/>
    </g>
   </g>
   <g id="text_2">
    <!-- Redaktion publiziert -->
    <g transform="translate(229.642797 138.560586) scale(0.125 -0.125)">
     <defs>
      <path id="DejaVuSans-52" d="M 2841 2188 
Q 3044 2119 3236 1894 
Q 3428 1669 3622 1275 
L 4263 0 
L 3584 0 
L 2988 1197 
Q 2756 1666 2539 1819 
Q 2322 1972 1947 1972 
L 1259 1972 
L 1259 0 
L 628 0 
L 628 4666 
L 2053 4666 
Q 2853 4666 3247 4331 
Q 3641 3997 3641 3322 
Q 3641 2881 3436 2590 
Q 3231 2300 2841 2188 
z
M 1259 4147 
L 1259 2491 
L 2053 2491 
Q 2509 2491 2742 2702 
Q 2975 2913 2975 3322 
Q 2975 3731 2742 3939 
Q 2509 4147 2053 4147 
L 1259 4147 
z
" transform="scale(0.015625)"/>
      <path id="DejaVuSans-65" d="M 3597 1894 
L 3597 1613 
L 953 1613 
Q 991 1019 1311 708 
Q 1631 397 2203 397 
Q 2534 397 2845 478 
Q 3156 559 3463 722 
L 3463 178 
Q 3153 47 2828 -22 
Q 2503 -91 2169 -91 
Q 1331 -91 842 396 
Q 353 884 353 1716 
Q 353 2575 817 3079 
Q 1281 3584 2069 3584 
Q 2775 3584 3186 3129 
Q 3597 2675 3597 1894 
z
M 3022 2063 
Q 3016 2534 2758 2815 
Q 2500 3097 2075 3097 
Q 1594 3097 1305 2825 
Q 1016 2553 972 2059 
L 3022 2063 
z
" transform="scale(0.015625)"/>
      <path id="DejaVuSans-64" d="M 2906 2969 
L 2906 4863 
L 3481 4863 
L 3481 0 
L 2906 0 
L 2906 525 
Q 2725 213 2448 61 
Q 2172 -91 1784 -91 
Q 1150 -91 751 415 
Q 353 922 353 1747 
Q 353 2572 751 3078 
Q 1150 3584 1784 3584 
Q 2172 3584 2448 3432 
Q 2725 3281 2906 2969 
z
M 947 1747 
Q 947 1113 1208 752 
Q 1469 391 1925 391 
Q 2381 391 2643 752 
Q 2906 1113 2906 1747 
Q 2906 2381 2643 2742 
Q 2381 3103 1925 3103 
Q 1469 3103 1208 2742 
Q 947 2381 947 1747 
z
" transform="scale(0.015625)"/>
      <path id="DejaVuSans-6b" d="M 581 4863 
L 1159 4863 
L 1159 1991 
L 2875 3500 
L 3609 3500 
L 1753 1863 
L 3688 0 
L 2938 0 
L 1159 1709 
L 1159 0 
L 581 0 
L 581 4863 
z
" transform="scale(0.015625)"/>
      <path id="DejaVuSans-69" d="M 603 3500 
L 1178 3500 
L 1178 0 
L 603 0 
L 603 3500 
z
M 603 4863 
L 1178 4863 
L 1178 4134 
L 603 4134 
L 603 4863 
z
" transform="scale(0.015625)"/>
      <path id="DejaVuSans-6f" d="M 1959 3097 
Q 1497 3097 1228 2736 
Q 959 2375 959 1747 
Q 959 1119 1226 758 
Q 1494 397 1959 397 
Q 2419 397 2687 759 
Q 2956 1122 2956 1747 
Q 2956 2369 2687 2733 
Q 2419 3097 1959 3097 
z
M 1959 3584 
Q 2709 3584 3137 3096 
Q 3566 2609 3566 1747 
Q 3566 888 3137 398 
Q 2709 -91 1959 -91 
Q 1206 -91 779 398 
Q 353 888 353 1747 
Q 353 2609 779 3096 
Q 1206 3584 1959 3584 
z
" transform="scale(0.015625)"/>
      <path id="DejaVuSans-6e" d="M 3513 2113 
L 3513 0 
L 2938 0 
L 2938 2094 
Q 2938 2591 2744 2837 
Q 2550 3084 2163 3084 
Q 1697 3084 1428 2787 
Q 1159 2491 1159 1978 
L 1159 0 
L 581 0 
L 581 3500 
L 1159 3500 
L 1159 2956 
Q 1366 3272 1645 3428 
Q 1925 3584 2291 3584 
Q 2894 3584 3203 3211 
Q 3513 2838 3513 2113 
z
" transform="scale(0.015625)"/>
      <path id="DejaVuSans-20" transform="scale(0.015625)"/>
      <path id="DejaVuSans-70" d="M 1159 525 
L 1159 -1331 
L 581 -1331 
L 581 3500 
L 1159 3500 
L 1159 2969 
Q 1341 3281 1617 3432 
Q 1894 3584 2278 3584 
Q 2916 3584 3314 3078 
Q 3713 2572 3713 1747 
Q 3713 922 3314 415 
Q 2916 -91 2278 -91 
Q 1894 -91 1617 61 
Q 1341 213 1159 525 
z
M 3116 1747 
Q 3116 2381 2855 2742 
Q 2594 3103 2138 3103 
Q 1681 3103 1420 2742 
Q 1159 2381 1159 1747 
Q 1159 1113 1420 752 
Q 1681 391 2138 391 
Q 2594 391 2855 752 
Q 3116 1113 3116 1747 
z
" transform="scale(0.015625)"/>
      <path id="DejaVuSans-75" d="M 544 1381 
L 544 3500 
L 1119 3500 
L 1119 1403 
Q 1119 906 1312 657 
Q 1506 409 1894 409 
Q 2359 409 2629 706 
Q 2900 1003 2900 1516 
L 2900 3500 
L 3475 3500 
L 3475 0 
L 2900 0 
L 2900 538 
Q 2691 219 2414 64 
Q 2138 -91 1772 -91 
Q 1169 -91 856 284 
Q 544 659 544 1381 
z
M 1991 3584 
L 1991 3584 
z
" transform="scale(0.015625)"/>
      <path id="DejaVuSans-62" d="M 3116 1747 
Q 3116 2381 2855 2742 
Q 2594 3103 2138 3103 
Q 1681 3103 1420 2742 
Q 1159 2381 1159 1747 
Q 1159 1113 1420 752 
Q 1681 391 2138 391 
Q 2594 391 2855 752 
Q 3116 1113 3116 1747 
z
M 1159 2969 
Q 1341 3281 1617 3432 
Q 1894 3584 2278 3584 
Q 2916 3584 3314 3078 
Q 3713 2572 3713 1747 
Q 3713 922 3314 415 
Q 2916 -91 2278 -91 
Q 1894 -91 1617 61 
Q 1341 213 1159 525 
L 1159 0 
L 581 0 
L 581 4863 
L 1159 4863 
L 1159 2969 
z
" transform="scale(0.015625)"/>
      <path id="DejaVuSans-6c" d="M 603 4863 
L 1178 4863 
L 1178 0 
L 603 0 
L 603 4863 
z
" transform="scale(0.015625)"/>
      <path id="DejaVuSans-7a" d="M 353 3500 
L 3084 3500 
L 3084 2975 
L 922 459 
L 3084 459 
L 3084 0 
L 275 0 
L 275 525 
L 2438 3041 
L 353 3041 
L 353 3500 
z
" transform="scale(0.015625)"/>
     </defs>
     <use xlink:href="#DejaVuSans-52"/>
     <use xlink:href="#DejaVuSans-65" x="64.982422"/>
     <use xlink:href="#DejaVuSans-64" x="126.505859"/>
     <use xlink:href="#DejaVuSans-61" x="189.982422"/>
     <use xlink:href="#DejaVuSans-6b" x="251.261719"/>
     <use xlink:href="#DejaVuSans-74" x="309.171875"/>
     <use xlink:href="#DejaVuSans-69" x="348.380859"/>
     <use xlink:href="#DejaVuSans-6f" x="376.164062"/>
     <use xlink:href="#DejaVuSans-6e" x="437.345703"/>
     <use xlink:href="#DejaVuSans-20" x="500.724609"/>
     <use xlink:href="#DejaVuSans-70" x="532.511719"/>
     <use xlink:href="#DejaVuSans-75" x="595.988281"/>
     <use xlink:href="#DejaVuSans-62" x="659.367188"/>
     <use xlink:href="#DejaVuSans-6c" x="722.84375"/>
     <use xlink:href="#DejaVuSans-69" x="750.626953"/>
     <use xlink:href="#DejaVuSans-7a" x="778.410156"/>
     <use xlink:href="#DejaVuSans-69" x="830.900391"/>
     <use xlink:href="#DejaVuSans-65" x="858.683594"/>
     <use xlink:href="#DejaVuSans-72" x="920.207031"/>
     <use xlink:href="#DejaVuSans-74" x="961.320312"/>
    </g>
    <!-- Textentwurf im Chat -->
    <g transform="translate(229.034398 152.557852) scale(0.125 -0.125)">
     <defs>
      <path id="DejaVuSans-54" d="M -19 4666 
L 3928 4666 
L 3928 4134 
L 2272 4134 
L 2272 0 
L 1638 0 
L 1638 4134 
L -19 4134 
L -19 4666 
z
" transform="scale(0.015625)"/>
      <path id="DejaVuSans-78" d="M 3513 3500 
L 2247 1797 
L 3578 0 
L 2900 0 
L 1881 1375 
L 863 0 
L 184 0 
L 1544 1831 
L 300 3500 
L 978 3500 
L 1906 2253 
L 2834 3500 
L 3513 3500 
z
" transform="scale(0.015625)"/>
      <path id="DejaVuSans-77" d="M 269 3500 
L 844 3500 
L 1563 769 
L 2278 3500 
L 2956 3500 
L 3675 769 
L 4391 3500 
L 4966 3500 
L 4050 0 
L 3372 0 
L 2619 2869 
L 1863 0 
L 1184 0 
L 269 3500 
z
" transform="scale(0.015625)"/>
      <path id="DejaVuSans-66" d="M 2375 4863 
L 2375 4384 
L 1825 4384 
Q 1516 4384 1395 4259 
Q 1275 4134 1275 3809 
L 1275 3500 
L 2222 3500 
L 2222 3053 
L 1275 3053 
L 1275 0 
L 697 0 
L 697 3053 
L 147 3053 
L 147 3500 
L 697 3500 
L 697 3744 
Q 697 4328 969 4595 
Q 1241 4863 1831 4863 
L 2375 4863 
z
" transform="scale(0.015625)"/>
      <path id="DejaVuSans-6d" d="M 3328 2828 
Q 3544 3216 3844 3400 
Q 4144 3584 4550 3584 
Q 5097 3584 5394 3201 
Q 5691 2819 5691 2113 
L 5691 0 
L 5113 0 
L 5113 2094 
Q 5113 2597 4934 2840 
Q 4756 3084 4391 3084 
Q 3944 3084 3684 2787 
Q 3425 2491 3425 1978 
L 3425 0 
L 2847 0 
L 2847 2094 
Q 2847 2600 2669 2842 
Q 2491 3084 2119 3084 
Q 1678 3084 1418 2786 
Q 1159 2488 1159 1978 
L 1159 0 
L 581 0 
L 581 3500 
L 1159 3500 
L 1159 2956 
Q 1356 3278 1631 3431 
Q 1906 3584 2284 3584 
Q 2666 3584 2933 3390 
Q 3200 3197 3328 2828 
z
" transform="scale(0.015625)"/>
      <path id="DejaVuSans-43" d="M 4122 4306 
L 4122 3641 
Q 3803 3938 3442 4084 
Q 3081 4231 2675 4231 
Q 1875 4231 1450 3742 
Q 1025 3253 1025 2328 
Q 1025 1406 1450 917 
Q 1875 428 2675 428 
Q 3081 428 3442 575 
Q 3803 722 4122 1019 
L 4122 359 
Q 3791 134 3420 21 
Q 3050 -91 2638 -91 
Q 1578 -91 968 557 
Q 359 1206 359 2328 
Q 359 3453 968 4101 
Q 1578 4750 2638 4750 
Q 3056 4750 3426 4639 
Q 3797 4528 4122 4306 
z
" transform="scale(0.015625)"/>
      <path id="DejaVuSans-68" d="M 3513 2113 
L 3513 0 
L 2938 0 
L 2938 2094 
Q 2938 2591 2744 2837 
Q 2550 3084 2163 3084 
Q 1697 3084 1428 2787 
Q 1159 2491 1159 1978 
L 1159 0 
L 581 0 
L 581 4863 
L 1159 4863 
L 1159 2956 
Q 1366 3272 1645 3428 
Q 1925 3584 2291 3584 
Q 2894 3584 3203 3211 
Q 3513 2838 3513 2113 
z
" transform="scale(0.015625)"/>
     </defs>
     <use xlink:href="#DejaVuSans-54"/>
     <use xlink:href="#DejaVuSans-65" x="44.083984"/>
     <use xlink:href="#DejaVuSans-78" x="103.857422"/>
     <use xlink:href="#DejaVuSans-74" x="163.037109"/>
     <use xlink:href="#DejaVuSans-65" x="202.246094"/>
     <use xlink:href="#DejaVuSans-6e" x="263.769531"/>
     <use xlink:href="#DejaVuSans-74" x="327.148438"/>
     <use xlink:href="#DejaVuSans-77" x="366.357422"/>
     <use xlink:href="#DejaVuSans-75" x="448.144531"/>
     <use xlink:href="#DejaVuSans-72" x="511.523438"/>
     <use xlink:href="#DejaVuSans-66" x="552.636719"/>
     <use xlink:href="#DejaVuSans-20" x="587.841797"/>
     <use xlink:href="#DejaVuSans-69" x="619.628906"/>
     <use xlink:href="#DejaVuSans-6d" x="647.412109"/>
     <use xlink:href="#DejaVuSans-20" x="744.824219"/>
     <use xlink:href="#DejaVuSans-43" x="776.611328"/>
     <use xlink:href="#DejaVuSans-68" x="846.435547"/>
     <use xlink:href="#DejaVuSans-61" x="909.814453"/>
     <use xlink:href="#DejaVuSans-74" x="971.09375"/>
    </g>
   </g>
   <g id="text_3">
    <!-- Wartezeit -->
    <g transform="translate(262.386937 214.160586) scale(0.125 -0.125)">
     <defs>
      <path id="DejaVuSans-57" d="M 213 4666 
L 850 4666 
L 1831 722 
L 2809 4666 
L 3519 4666 
L 4500 722 
L 5478 4666 
L 6119 4666 
L 4947 0 
L 4153 0 
L 3169 4050 
L 2175 0 
L 1381 0 
L 213 4666 
z
" transform="scale(0.015625)"/>
     </defs>
     <use xlink:href="#DejaVuSans-57"/>
     <use xlink:href="#DejaVuSans-61" x="92.501953"/>
     <use xlink:href="#DejaVuSans-72" x="153.78125"/>
     <use xlink:href="#DejaVuSans-74" x="194.894531"/>
     <use xlink:href="#DejaVuSans-65" x="234.103516"/>
     <use xlink:href="#DejaVuSans-7a" x="295.626953"/>
     <use xlink:href="#DejaVuSans-65" x="348.117188"/>
     <use xlink:href="#DejaVuSans-69" x="409.640625"/>
     <use xlink:href="#DejaVuSans-74" x="437.423828"/>
    </g>
    <!-- w1 = 3 Tage -->
    <g transform="translate(253.48557 228.157852) scale(0.125 -0.125)">
     <defs>
      <path id="DejaVuSans-31" d="M 794 531 
L 1825 531 
L 1825 4091 
L 703 3866 
L 703 4441 
L 1819 4666 
L 2450 4666 
L 2450 531 
L 3481 531 
L 3481 0 
L 794 0 
L 794 531 
z
" transform="scale(0.015625)"/>
      <path id="DejaVuSans-3d" d="M 678 2906 
L 4684 2906 
L 4684 2381 
L 678 2381 
L 678 2906 
z
M 678 1631 
L 4684 1631 
L 4684 1100 
L 678 1100 
L 678 1631 
z
" transform="scale(0.015625)"/>
      <path id="DejaVuSans-33" d="M 2597 2516 
Q 3050 2419 3304 2112 
Q 3559 1806 3559 1356 
Q 3559 666 3084 287 
Q 2609 -91 1734 -91 
Q 1441 -91 1130 -33 
Q 819 25 488 141 
L 488 750 
Q 750 597 1062 519 
Q 1375 441 1716 441 
Q 2309 441 2620 675 
Q 2931 909 2931 1356 
Q 2931 1769 2642 2001 
Q 2353 2234 1838 2234 
L 1294 2234 
L 1294 2753 
L 1863 2753 
Q 2328 2753 2575 2939 
Q 2822 3125 2822 3475 
Q 2822 3834 2567 4026 
Q 2313 4219 1838 4219 
Q 1578 4219 1281 4162 
Q 984 4106 628 3988 
L 628 4550 
Q 988 4650 1302 4700 
Q 1616 4750 1894 4750 
Q 2613 4750 3031 4423 
Q 3450 4097 3450 3541 
Q 3450 3153 3228 2886 
Q 3006 2619 2597 2516 
z
" transform="scale(0.015625)"/>
      <path id="DejaVuSans-67" d="M 2906 1791 
Q 2906 2416 2648 2759 
Q 2391 3103 1925 3103 
Q 1463 3103 1205 2759 
Q 947 2416 947 1791 
Q 947 1169 1205 825 
Q 1463 481 1925 481 
Q 2391 481 2648 825 
Q 2906 1169 2906 1791 
z
M 3481 434 
Q 3481 -459 3084 -895 
Q 2688 -1331 1869 -1331 
Q 1566 -1331 1297 -1286 
Q 1028 -1241 775 -1147 
L 775 -588 
Q 1028 -725 1275 -790 
Q 1522 -856 1778 -856 
Q 2344 -856 2625 -561 
Q 2906 -266 2906 331 
L 2906 616 
Q 2728 306 2450 153 
Q 2172 0 1784 0 
Q 1141 0 747 490 
Q 353 981 353 1791 
Q 353 2603 747 3093 
Q 1141 3584 1784 3584 
Q 2172 3584 2450 3431 
Q 2728 3278 2906 2969 
L 2906 3500 
L 3481 3500 
L 3481 434 
z
" transform="scale(0.015625)"/>
     </defs>
     <use xlink:href="#DejaVuSans-77"/>
     <use xlink:href="#DejaVuSans-31" x="81.787109"/>
     <use xlink:href="#DejaVuSans-20" x="145.410156"/>
     <use xlink:href="#DejaVuSans-3d" x="177.197266"/>
     <use xlink:href="#DejaVuSans-20" x="260.986328"/>
     <use xlink:href="#DejaVuSans-33" x="292.773438"/>
     <use xlink:href="#DejaVuSans-20" x="356.396484"/>
     <use xlink:href="#DejaVuSans-54" x="388.183594"/>
     <use xlink:href="#DejaVuSans-61" x="432.767578"/>
     <use xlink:href="#DejaVuSans-67" x="494.046875"/>
     <use xlink:href="#DejaVuSans-65" x="557.523438"/>
    </g>
   </g>
   <g id="text_4">
    <!-- nein -->
    <g transform="translate(296.856 401.988047) scale(0.125 -0.125)">
     <use xlink:href="#DejaVuSans-6e"/>
     <use xlink:href="#DejaVuSans-65" x="63.378906"/>
     <use xlink:href="#DejaVuSans-69" x="124.902344"/>
     <use xlink:href="#DejaVuSans-6e" x="152.685547"/>
    </g>
   </g>
   <g id="text_5">
    <!-- ja -->
    <g transform="translate(204.363187 319.780391) scale(0.125 -0.125)">
     <defs>
      <path id="DejaVuSans-6a" d="M 603 3500 
L 1178 3500 
L 1178 -63 
Q 1178 -731 923 -1031 
Q 669 -1331 103 -1331 
L -116 -1331 
L -116 -844 
L 38 -844 
Q 366 -844 484 -692 
Q 603 -541 603 -63 
L 603 3500 
z
M 603 4863 
L 1178 4863 
L 1178 4134 
L 603 4134 
L 603 4863 
z
" transform="scale(0.015625)"/>
     </defs>
     <use xlink:href="#DejaVuSans-6a"/>
     <use xlink:href="#DejaVuSans-61" x="27.783203"/>
    </g>
   </g>
   <g id="text_6">
    <!-- Gibt es Ver- -->
    <g transform="translate(256.042211 316.511953) scale(0.125 -0.125)">
     <defs>
      <path id="DejaVuSans-47" d="M 3809 666 
L 3809 1919 
L 2778 1919 
L 2778 2438 
L 4434 2438 
L 4434 434 
Q 4069 175 3628 42 
Q 3188 -91 2688 -91 
Q 1594 -91 976 548 
Q 359 1188 359 2328 
Q 359 3472 976 4111 
Q 1594 4750 2688 4750 
Q 3144 4750 3555 4637 
Q 3966 4525 4313 4306 
L 4313 3634 
Q 3963 3931 3569 4081 
Q 3175 4231 2741 4231 
Q 1884 4231 1454 3753 
Q 1025 3275 1025 2328 
Q 1025 1384 1454 906 
Q 1884 428 2741 428 
Q 3075 428 3337 486 
Q 3600 544 3809 666 
z
" transform="scale(0.015625)"/>
      <path id="DejaVuSans-73" d="M 2834 3397 
L 2834 2853 
Q 2591 2978 2328 3040 
Q 2066 3103 1784 3103 
Q 1356 3103 1142 2972 
Q 928 2841 928 2578 
Q 928 2378 1081 2264 
Q 1234 2150 1697 2047 
L 1894 2003 
Q 2506 1872 2764 1633 
Q 3022 1394 3022 966 
Q 3022 478 2636 193 
Q 2250 -91 1575 -91 
Q 1294 -91 989 -36 
Q 684 19 347 128 
L 347 722 
Q 666 556 975 473 
Q 1284 391 1588 391 
Q 1994 391 2212 530 
Q 2431 669 2431 922 
Q 2431 1156 2273 1281 
Q 2116 1406 1581 1522 
L 1381 1569 
Q 847 1681 609 1914 
Q 372 2147 372 2553 
Q 372 3047 722 3315 
Q 1072 3584 1716 3584 
Q 2034 3584 2315 3537 
Q 2597 3491 2834 3397 
z
" transform="scale(0.015625)"/>
      <path id="DejaVuSans-56" d="M 1831 0 
L 50 4666 
L 709 4666 
L 2188 738 
L 3669 4666 
L 4325 4666 
L 2547 0 
L 1831 0 
z
" transform="scale(0.015625)"/>
      <path id="DejaVuSans-2d" d="M 313 2009 
L 1997 2009 
L 1997 1497 
L 313 1497 
L 313 2009 
z
" transform="scale(0.015625)"/>
     </defs>
     <use xlink:href="#DejaVuSans-47"/>
     <use xlink:href="#DejaVuSans-69" x="77.490234"/>
     <use xlink:href="#DejaVuSans-62" x="105.273438"/>
     <use xlink:href="#DejaVuSans-74" x="168.75"/>
     <use xlink:href="#DejaVuSans-20" x="207.958984"/>
     <use xlink:href="#DejaVuSans-65" x="239.746094"/>
     <use xlink:href="#DejaVuSans-73" x="301.269531"/>
     <use xlink:href="#DejaVuSans-20" x="353.369141"/>
     <use xlink:href="#DejaVuSans-56" x="385.15625"/>
     <use xlink:href="#DejaVuSans-65" x="445.814453"/>
     <use xlink:href="#DejaVuSans-72" x="507.337891"/>
     <use xlink:href="#DejaVuSans-2d" x="542.076172"/>
    </g>
    <!-- besserungs- -->
    <g transform="translate(254.035375 330.509219) scale(0.125 -0.125)">
     <use xlink:href="#DejaVuSans-62"/>
     <use xlink:href="#DejaVuSans-65" x="63.476562"/>
     <use xlink:href="#DejaVuSans-73" x="125"/>
     <use xlink:href="#DejaVuSans-73" x="177.099609"/>
     <use xlink:href="#DejaVuSans-65" x="229.199219"/>
     <use xlink:href="#DejaVuSans-72" x="290.722656"/>
     <use xlink:href="#DejaVuSans-75" x="331.835938"/>
     <use xlink:href="#DejaVuSans-6e" x="395.214844"/>
     <use xlink:href="#DejaVuSans-67" x="458.59375"/>
     <use xlink:href="#DejaVuSans-73" x="522.070312"/>
     <use xlink:href="#DejaVuSans-2d" x="574.169922"/>
    </g>
    <!-- vorschläge? -->
    <g transform="translate(254.732641 344.506484) scale(0.125 -0.125)">
     <defs>
      <path id="DejaVuSans-76" d="M 191 3500 
L 800 3500 
L 1894 563 
L 2988 3500 
L 3597 3500 
L 2284 0 
L 1503 0 
L 191 3500 
z
" transform="scale(0.015625)"/>
      <path id="DejaVuSans-63" d="M 3122 3366 
L 3122 2828 
Q 2878 2963 2633 3030 
Q 2388 3097 2138 3097 
Q 1578 3097 1268 2742 
Q 959 2388 959 1747 
Q 959 1106 1268 751 
Q 1578 397 2138 397 
Q 2388 397 2633 464 
Q 2878 531 3122 666 
L 3122 134 
Q 2881 22 2623 -34 
Q 2366 -91 2075 -91 
Q 1284 -91 818 406 
Q 353 903 353 1747 
Q 353 2603 823 3093 
Q 1294 3584 2113 3584 
Q 2378 3584 2631 3529 
Q 2884 3475 3122 3366 
z
" transform="scale(0.015625)"/>
      <path id="DejaVuSans-e4" d="M 2194 1759 
Q 1497 1759 1228 1600 
Q 959 1441 959 1056 
Q 959 750 1161 570 
Q 1363 391 1709 391 
Q 2188 391 2477 730 
Q 2766 1069 2766 1631 
L 2766 1759 
L 2194 1759 
z
M 3341 1997 
L 3341 0 
L 2766 0 
L 2766 531 
Q 2569 213 2275 61 
Q 1981 -91 1556 -91 
Q 1019 -91 701 211 
Q 384 513 384 1019 
Q 384 1609 779 1909 
Q 1175 2209 1959 2209 
L 2766 2209 
L 2766 2266 
Q 2766 2663 2505 2880 
Q 2244 3097 1772 3097 
Q 1472 3097 1187 3025 
Q 903 2953 641 2809 
L 641 3341 
Q 956 3463 1253 3523 
Q 1550 3584 1831 3584 
Q 2591 3584 2966 3190 
Q 3341 2797 3341 1997 
z
M 2150 4850 
L 2784 4850 
L 2784 4219 
L 2150 4219 
L 2150 4850 
z
M 928 4850 
L 1562 4850 
L 1562 4219 
L 928 4219 
L 928 4850 
z
" transform="scale(0.015625)"/>
      <path id="DejaVuSans-3f" d="M 1222 794 
L 1856 794 
L 1856 0 
L 1222 0 
L 1222 794 
z
M 1838 1253 
L 1241 1253 
L 1241 1734 
Q 1241 2050 1328 2253 
Q 1416 2456 1697 2725 
L 1978 3003 
Q 2156 3169 2236 3316 
Q 2316 3463 2316 3616 
Q 2316 3894 2111 4066 
Q 1906 4238 1569 4238 
Q 1322 4238 1042 4128 
Q 763 4019 459 3809 
L 459 4397 
Q 753 4575 1054 4662 
Q 1356 4750 1678 4750 
Q 2253 4750 2601 4447 
Q 2950 4144 2950 3647 
Q 2950 3409 2837 3195 
Q 2725 2981 2444 2713 
L 2169 2444 
Q 2022 2297 1961 2214 
Q 1900 2131 1875 2053 
Q 1856 1988 1847 1894 
Q 1838 1800 1838 1638 
L 1838 1253 
z
" transform="scale(0.015625)"/>
     </defs>
     <use xlink:href="#DejaVuSans-76"/>
     <use xlink:href="#DejaVuSans-6f" x="59.179688"/>
     <use xlink:href="#DejaVuSans-72" x="120.361328"/>
     <use xlink:href="#DejaVuSans-73" x="161.474609"/>
     <use xlink:href="#DejaVuSans-63" x="213.574219"/>
     <use xlink:href="#DejaVuSans-68" x="268.554688"/>
     <use xlink:href="#DejaVuSans-6c" x="331.933594"/>
     <use xlink:href="#DejaVuSans-e4" x="359.716797"/>
     <use xlink:href="#DejaVuSans-67" x="420.996094"/>
     <use xlink:href="#DejaVuSans-65" x="484.472656"/>
     <use xlink:href="#DejaVuSans-3f" x="545.996094"/>
    </g>
   </g>
   <g id="text_7">
    <!-- Abstimmung -->
    <g transform="translate(252.425023 432.860586) scale(0.125 -0.125)">
     <defs>
      <path id="DejaVuSans-41" d="M 2188 4044 
L 1331 1722 
L 3047 1722 
L 2188 4044 
z
M 1831 4666 
L 2547 4666 
L 4325 0 
L 3669 0 
L 3244 1197 
L 1141 1197 
L 716 0 
L 50 0 
L 1831 4666 
z
" transform="scale(0.015625)"/>
     </defs>
     <use xlink:href="#DejaVuSans-41"/>
     <use xlink:href="#DejaVuSans-62" x="68.408203"/>
     <use xlink:href="#DejaVuSans-73" x="131.884766"/>
     <use xlink:href="#DejaVuSans-74" x="183.984375"/>
     <use xlink:href="#DejaVuSans-69" x="223.193359"/>
     <use xlink:href="#DejaVuSans-6d" x="250.976562"/>
     <use xlink:href="#DejaVuSans-6d" x="348.388672"/>
     <use xlink:href="#DejaVuSans-75" x="445.800781"/>
     <use xlink:href="#DejaVuSans-6e" x="509.179688"/>
     <use xlink:href="#DejaVuSans-67" x="572.558594"/>
    </g>
    <!-- beginnt -->
    <g transform="translate(268.286352 446.857852) scale(0.125 -0.125)">
     <use xlink:href="#DejaVuSans-62"/>
     <use xlink:href="#DejaVuSans-65" x="63.476562"/>
     <use xlink:href="#DejaVuSans-67" x="125"/>
     <use xlink:href="#DejaVuSans-69" x="188.476562"/>
     <use xlink:href="#DejaVuSans-6e" x="216.259766"/>
     <use xlink:href="#DejaVuSans-6e" x="279.638672"/>
     <use xlink:href="#DejaVuSans-74" x="343.017578"/>
    </g>
   </g>
   <g id="text_8">
    <!-- Wartezeit -->
    <g transform="translate(262.386937 508.460586) scale(0.125 -0.125)">
     <use xlink:href="#DejaVuSans-57"/>
     <use xlink:href="#DejaVuSans-61" x="92.501953"/>
     <use xlink:href="#DejaVuSans-72" x="153.78125"/>
     <use xlink:href="#DejaVuSans-74" x="194.894531"/>
     <use xlink:href="#DejaVuSans-65" x="234.103516"/>
     <use xlink:href="#DejaVuSans-7a" x="295.626953"/>
     <use xlink:href="#DejaVuSans-65" x="348.117188"/>
     <use xlink:href="#DejaVuSans-69" x="409.640625"/>
     <use xlink:href="#DejaVuSans-74" x="437.423828"/>
    </g>
    <!-- w2 = 3 Tage -->
    <g transform="translate(253.48557 522.457852) scale(0.125 -0.125)">
     <defs>
      <path id="DejaVuSans-32" d="M 1228 531 
L 3431 531 
L 3431 0 
L 469 0 
L 469 531 
Q 828 903 1448 1529 
Q 2069 2156 2228 2338 
Q 2531 2678 2651 2914 
Q 2772 3150 2772 3378 
Q 2772 3750 2511 3984 
Q 2250 4219 1831 4219 
Q 1534 4219 1204 4116 
Q 875 4013 500 3803 
L 500 4441 
Q 881 4594 1212 4672 
Q 1544 4750 1819 4750 
Q 2544 4750 2975 4387 
Q 3406 4025 3406 3419 
Q 3406 3131 3298 2873 
Q 3191 2616 2906 2266 
Q 2828 2175 2409 1742 
Q 1991 1309 1228 531 
z
" transform="scale(0.015625)"/>
     </defs>
     <use xlink:href="#DejaVuSans-77"/>
     <use xlink:href="#DejaVuSans-32" x="81.787109"/>
     <use xlink:href="#DejaVuSans-20" x="145.410156"/>
     <use xlink:href="#DejaVuSans-3d" x="177.197266"/>
     <use xlink:href="#DejaVuSans-20" x="260.986328"/>
     <use xlink:href="#DejaVuSans-33" x="292.773438"/>
     <use xlink:href="#DejaVuSans-20" x="356.396484"/>
     <use xlink:href="#DejaVuSans-54" x="388.183594"/>
     <use xlink:href="#DejaVuSans-61" x="432.767578"/>
     <use xlink:href="#DejaVuSans-67" x="494.046875"/>
     <use xlink:href="#DejaVuSans-65" x="557.523438"/>
    </g>
   </g>
   <g id="text_9">
    <!-- nein -->
    <g transform="translate(296.856 696.288047) scale(0.125 -0.125)">
     <use xlink:href="#DejaVuSans-6e"/>
     <use xlink:href="#DejaVuSans-65" x="63.378906"/>
     <use xlink:href="#DejaVuSans-69" x="124.902344"/>
     <use xlink:href="#DejaVuSans-6e" x="152.685547"/>
    </g>
   </g>
   <g id="text_10">
    <!-- ja -->
    <g transform="translate(368.856 614.080391) scale(0.125 -0.125)">
     <use xlink:href="#DejaVuSans-6a"/>
     <use xlink:href="#DejaVuSans-61" x="27.783203"/>
    </g>
   </g>
   <g id="text_11">
    <!-- Gibt es -->
    <g transform="translate(270.091039 617.810586) scale(0.125 -0.125)">
     <use xlink:href="#DejaVuSans-47"/>
     <use xlink:href="#DejaVuSans-69" x="77.490234"/>
     <use xlink:href="#DejaVuSans-62" x="105.273438"/>
     <use xlink:href="#DejaVuSans-74" x="168.75"/>
     <use xlink:href="#DejaVuSans-20" x="207.958984"/>
     <use xlink:href="#DejaVuSans-65" x="239.746094"/>
     <use xlink:href="#DejaVuSans-73" x="301.269531"/>
    </g>
    <!-- Vetos? -->
    <g transform="translate(271.691625 631.807852) scale(0.125 -0.125)">
     <use xlink:href="#DejaVuSans-56"/>
     <use xlink:href="#DejaVuSans-65" x="60.658203"/>
     <use xlink:href="#DejaVuSans-74" x="122.181641"/>
     <use xlink:href="#DejaVuSans-6f" x="161.390625"/>
     <use xlink:href="#DejaVuSans-73" x="222.572266"/>
     <use xlink:href="#DejaVuSans-3f" x="274.671875"/>
    </g>
   </g>
   <g id="text_12">
    <!-- Text ist -->
    <g transform="translate(270.106664 727.160586) scale(0.125 -0.125)">
     <use xlink:href="#DejaVuSans-54"/>
     <use xlink:href="#DejaVuSans-65" x="44.083984"/>
     <use xlink:href="#DejaVuSans-78" x="103.857422"/>
     <use xlink:href="#DejaVuSans-74" x="163.037109"/>
     <use xlink:href="#DejaVuSans-20" x="202.246094"/>
     <use xlink:href="#DejaVuSans-69" x="234.033203"/>
     <use xlink:href="#DejaVuSans-73" x="261.816406"/>
     <use xlink:href="#DejaVuSans-74" x="313.916016"/>
    </g>
    <!-- beschlossen -->
    <g transform="translate(253.830297 741.157852) scale(0.125 -0.125)">
     <use xlink:href="#DejaVuSans-62"/>
     <use xlink:href="#DejaVuSans-65" x="63.476562"/>
     <use xlink:href="#DejaVuSans-73" x="125"/>
     <use xlink:href="#DejaVuSans-63" x="177.099609"/>
     <use xlink:href="#DejaVuSans-68" x="232.080078"/>
     <use xlink:href="#DejaVuSans-6c" x="295.458984"/>
     <use xlink:href="#DejaVuSans-6f" x="323.242188"/>
     <use xlink:href="#DejaVuSans-73" x="384.423828"/>
     <use xlink:href="#DejaVuSans-73" x="436.523438"/>
     <use xlink:href="#DejaVuSans-65" x="488.623047"/>
     <use xlink:href="#DejaVuSans-6e" x="550.146484"/>
    </g>
   </g>
   <g id="text_13">
    <!-- Vetobehandlung -->
    <g transform="translate(406.705687 617.810586) scale(0.125 -0.125)">
     <use xlink:href="#DejaVuSans-56"/>
     <use xlink:href="#DejaVuSans-65" x="60.658203"/>
     <use xlink:href="#DejaVuSans-74" x="122.181641"/>
     <use xlink:href="#DejaVuSans-6f" x="161.390625"/>
     <use xlink:href="#DejaVuSans-62" x="222.572266"/>
     <use xlink:href="#DejaVuSans-65" x="286.048828"/>
     <use xlink:href="#DejaVuSans-68" x="347.572266"/>
     <use xlink:href="#DejaVuSans-61" x="410.951172"/>
     <use xlink:href="#DejaVuSans-6e" x="472.230469"/>
     <use xlink:href="#DejaVuSans-64" x="535.609375"/>
     <use xlink:href="#DejaVuSans-6c" x="599.085938"/>
     <use xlink:href="#DejaVuSans-75" x="626.869141"/>
     <use xlink:href="#DejaVuSans-6e" x="690.248047"/>
     <use xlink:href="#DejaVuSans-67" x="753.626953"/>
    </g>
    <!-- durch Redaktion -->
    <g transform="translate(406.738891 631.807852) scale(0.125 -0.125)">
     <use xlink:href="#DejaVuSans-64"/>
     <use xlink:href="#DejaVuSans-75" x="63.476562"/>
     <use xlink:href="#DejaVuSans-72" x="126.855469"/>
     <use xlink:href="#DejaVuSans-63" x="165.71875"/>
     <use xlink:href="#DejaVuSans-68" x="220.699219"/>
     <use xlink:href="#DejaVuSans-20" x="284.078125"/>
     <use xlink:href="#DejaVuSans-52" x="315.865234"/>
     <use xlink:href="#DejaVuSans-65" x="380.847656"/>
     <use xlink:href="#DejaVuSans-64" x="442.371094"/>
     <use xlink:href="#DejaVuSans-61" x="505.847656"/>
     <use xlink:href="#DejaVuSans-6b" x="567.126953"/>
     <use xlink:href="#DejaVuSans-74" x="625.037109"/>
     <use xlink:href="#DejaVuSans-69" x="664.246094"/>
     <use xlink:href="#DejaVuSans-6f" x="692.029297"/>
     <use xlink:href="#DejaVuSans-6e" x="753.210938"/>
    </g>
   </g>
   <g id="text_14">
    <!-- Veto- -->
    <g transform="translate(470.376 663.713125) scale(0.125 -0.125)">
     <use xlink:href="#DejaVuSans-56"/>
     <use xlink:href="#DejaVuSans-65" x="60.658203"/>
     <use xlink:href="#DejaVuSans-74" x="122.181641"/>
     <use xlink:href="#DejaVuSans-6f" x="161.390625"/>
     <use xlink:href="#DejaVuSans-2d" x="224.447266"/>
    </g>
    <!-- Rückzug -->
    <g transform="translate(470.376 677.710391) scale(0.125 -0.125)">
     <defs>
      <path id="DejaVuSans-fc" d="M 544 1381 
L 544 3500 
L 1119 3500 
L 1119 1403 
Q 1119 906 1312 657 
Q 1506 409 1894 409 
Q 2359 409 2629 706 
Q 2900 1003 2900 1516 
L 2900 3500 
L 3475 3500 
L 3475 0 
L 2900 0 
L 2900 538 
Q 2691 219 2414 64 
Q 2138 -91 1772 -91 
Q 1169 -91 856 284 
Q 544 659 544 1381 
z
M 1991 3584 
L 1991 3584 
z
M 2278 4850 
L 2912 4850 
L 2912 4219 
L 2278 4219 
L 2278 4850 
z
M 1056 4850 
L 1690 4850 
L 1690 4219 
L 1056 4219 
L 1056 4850 
z
" transform="scale(0.015625)"/>
     </defs>
     <use xlink:href="#DejaVuSans-52"/>
     <use xlink:href="#DejaVuSans-fc" x="64.982422"/>
     <use xlink:href="#DejaVuSans-63" x="128.361328"/>
     <use xlink:href="#DejaVuSans-6b" x="183.341797"/>
     <use xlink:href="#DejaVuSans-7a" x="241.251953"/>
     <use xlink:href="#DejaVuSans-75" x="293.742188"/>
     <use xlink:href="#DejaVuSans-67" x="357.121094"/>
    </g>
   </g>
   <g id="text_15">
    <!-- ja -->
    <g transform="translate(105.336 259.030391) scale(0.125 -0.125)">
     <use xlink:href="#DejaVuSans-6a"/>
     <use xlink:href="#DejaVuSans-61" x="27.783203"/>
    </g>
   </g>
   <g id="text_16">
    <!-- nein -->
    <g transform="translate(105.336 401.988047) scale(0.125 -0.125)">
     <use xlink:href="#DejaVuSans-6e"/>
     <use xlink:href="#DejaVuSans-65" x="63.378906"/>
     <use xlink:href="#DejaVuSans-69" x="124.902344"/>
     <use xlink:href="#DejaVuSans-6e" x="152.685547"/>
    </g>
   </g>
   <g id="text_17">
    <!-- Annahme -->
    <g transform="translate(70.734125 316.511953) scale(0.125 -0.125)">
     <use xlink:href="#DejaVuSans-41"/>
     <use xlink:href="#DejaVuSans-6e" x="68.408203"/>
     <use xlink:href="#DejaVuSans-6e" x="131.787109"/>
     <use xlink:href="#DejaVuSans-61" x="195.166016"/>
     <use xlink:href="#DejaVuSans-68" x="256.445312"/>
     <use xlink:href="#DejaVuSans-6d" x="319.824219"/>
     <use xlink:href="#DejaVuSans-65" x="417.236328"/>
    </g>
    <!-- durch -->
    <g transform="translate(82.901117 330.509219) scale(0.125 -0.125)">
     <use xlink:href="#DejaVuSans-64"/>
     <use xlink:href="#DejaVuSans-75" x="63.476562"/>
     <use xlink:href="#DejaVuSans-72" x="126.855469"/>
     <use xlink:href="#DejaVuSans-63" x="165.71875"/>
     <use xlink:href="#DejaVuSans-68" x="220.699219"/>
    </g>
    <!-- Redaktion? -->
    <g transform="translate(66.042719 344.506484) scale(0.125 -0.125)">
     <use xlink:href="#DejaVuSans-52"/>
     <use xlink:href="#DejaVuSans-65" x="64.982422"/>
     <use xlink:href="#DejaVuSans-64" x="126.505859"/>
     <use xlink:href="#DejaVuSans-61" x="189.982422"/>
     <use xlink:href="#DejaVuSans-6b" x="251.261719"/>
     <use xlink:href="#DejaVuSans-74" x="309.171875"/>
     <use xlink:href="#DejaVuSans-69" x="348.380859"/>
     <use xlink:href="#DejaVuSans-6f" x="376.164062"/>
     <use xlink:href="#DejaVuSans-6e" x="437.345703"/>
     <use xlink:href="#DejaVuSans-3f" x="500.724609"/>
    </g>
   </g>
   <g id="text_18">
    <!-- Die roten Zahlen sind Hilfsbezeichnungen, -->
    <g style="fill: #ff0000" transform="translate(205.518617 771.624125) scale(0.085 -0.085)">
     <defs>
      <path id="DejaVuSans-44" d="M 1259 4147 
L 1259 519 
L 2022 519 
Q 2988 519 3436 956 
Q 3884 1394 3884 2338 
Q 3884 3275 3436 3711 
Q 2988 4147 2022 4147 
L 1259 4147 
z
M 628 4666 
L 1925 4666 
Q 3281 4666 3915 4102 
Q 4550 3538 4550 2338 
Q 4550 1131 3912 565 
Q 3275 0 1925 0 
L 628 0 
L 628 4666 
z
" transform="scale(0.015625)"/>
      <path id="DejaVuSans-5a" d="M 359 4666 
L 4025 4666 
L 4025 4184 
L 1075 531 
L 4097 531 
L 4097 0 
L 288 0 
L 288 481 
L 3238 4134 
L 359 4134 
L 359 4666 
z
" transform="scale(0.015625)"/>
      <path id="DejaVuSans-48" d="M 628 4666 
L 1259 4666 
L 1259 2753 
L 3553 2753 
L 3553 4666 
L 4184 4666 
L 4184 0 
L 3553 0 
L 3553 2222 
L 1259 2222 
L 1259 0 
L 628 0 
L 628 4666 
z
" transform="scale(0.015625)"/>
      <path id="DejaVuSans-2c" d="M 750 794 
L 1409 794 
L 1409 256 
L 897 -744 
L 494 -744 
L 750 256 
L 750 794 
z
" transform="scale(0.015625)"/>
     </defs>
     <use xlink:href="#DejaVuSans-44"/>
     <use xlink:href="#DejaVuSans-69" x="77.001953"/>
     <use xlink:href="#DejaVuSans-65" x="104.785156"/>
     <use xlink:href="#DejaVuSans-20" x="166.308594"/>
     <use xlink:href="#DejaVuSans-72" x="198.095703"/>
     <use xlink:href="#DejaVuSans-6f" x="236.958984"/>
     <use xlink:href="#DejaVuSans-74" x="298.140625"/>
     <use xlink:href="#DejaVuSans-65" x="337.349609"/>
     <use xlink:href="#DejaVuSans-6e" x="398.873047"/>
     <use xlink:href="#DejaVuSans-20" x="462.251953"/>
     <use xlink:href="#DejaVuSans-5a" x="494.039062"/>
     <use xlink:href="#DejaVuSans-61" x="562.544922"/>
     <use xlink:href="#DejaVuSans-68" x="623.824219"/>
     <use xlink:href="#DejaVuSans-6c" x="687.203125"/>
     <use xlink:href="#DejaVuSans-65" x="714.986328"/>
     <use xlink:href="#DejaVuSans-6e" x="776.509766"/>
     <use xlink:href="#DejaVuSans-20" x="839.888672"/>
     <use xlink:href="#DejaVuSans-73" x="871.675781"/>
     <use xlink:href="#DejaVuSans-69" x="923.775391"/>
     <use xlink:href="#DejaVuSans-6e" x="951.558594"/>
     <use xlink:href="#DejaVuSans-64" x="1014.9375"/>
     <use xlink:href="#DejaVuSans-20" x="1078.414062"/>
     <use xlink:href="#DejaVuSans-48" x="1110.201172"/>
     <use xlink:href="#DejaVuSans-69" x="1185.396484"/>
     <use xlink:href="#DejaVuSans-6c" x="1213.179688"/>
     <use xlink:href="#DejaVuSans-66" x="1240.962891"/>
     <use xlink:href="#DejaVuSans-73" x="1276.167969"/>
     <use xlink:href="#DejaVuSans-62" x="1328.267578"/>
     <use xlink:href="#DejaVuSans-65" x="1391.744141"/>
     <use xlink:href="#DejaVuSans-7a" x="1453.267578"/>
     <use xlink:href="#DejaVuSans-65" x="1505.757812"/>
     <use xlink:href="#DejaVuSans-69" x="1567.28125"/>
     <use xlink:href="#DejaVuSans-63" x="1595.064453"/>
     <use xlink:href="#DejaVuSans-68" x="1650.044922"/>
     <use xlink:href="#DejaVuSans-6e" x="1713.423828"/>
     <use xlink:href="#DejaVuSans-75" x="1776.802734"/>
     <use xlink:href="#DejaVuSans-6e" x="1840.181641"/>
     <use xlink:href="#DejaVuSans-67" x="1903.560547"/>
     <use xlink:href="#DejaVuSans-65" x="1967.037109"/>
     <use xlink:href="#DejaVuSans-6e" x="2028.560547"/>
     <use xlink:href="#DejaVuSans-2c" x="2091.939453"/>
    </g>
    <!-- um Feedback zum Ablauf zu erleichtern. -->
    <g style="fill: #ff0000" transform="translate(210.014984 781.142266) scale(0.085 -0.085)">
     <defs>
      <path id="DejaVuSans-46" d="M 628 4666 
L 3309 4666 
L 3309 4134 
L 1259 4134 
L 1259 2759 
L 3109 2759 
L 3109 2228 
L 1259 2228 
L 1259 0 
L 628 0 
L 628 4666 
z
" transform="scale(0.015625)"/>
      <path id="DejaVuSans-2e" d="M 684 794 
L 1344 794 
L 1344 0 
L 684 0 
L 684 794 
z
" transform="scale(0.015625)"/>
     </defs>
     <use xlink:href="#DejaVuSans-75"/>
     <use xlink:href="#DejaVuSans-6d" x="63.378906"/>
     <use xlink:href="#DejaVuSans-20" x="160.791016"/>
     <use xlink:href="#DejaVuSans-46" x="192.578125"/>
     <use xlink:href="#DejaVuSans-65" x="244.597656"/>
     <use xlink:href="#DejaVuSans-65" x="306.121094"/>
     <use xlink:href="#DejaVuSans-64" x="367.644531"/>
     <use xlink:href="#DejaVuSans-62" x="431.121094"/>
     <use xlink:href="#DejaVuSans-61" x="494.597656"/>
     <use xlink:href="#DejaVuSans-63" x="555.876953"/>
     <use xlink:href="#DejaVuSans-6b" x="610.857422"/>
     <use xlink:href="#DejaVuSans-20" x="668.767578"/>
     <use xlink:href="#DejaVuSans-7a" x="700.554688"/>
     <use xlink:href="#DejaVuSans-75" x="753.044922"/>
     <use xlink:href="#DejaVuSans-6d" x="816.423828"/>
     <use xlink:href="#DejaVuSans-20" x="913.835938"/>
     <use xlink:href="#DejaVuSans-41" x="945.623047"/>
     <use xlink:href="#DejaVuSans-62" x="1014.03125"/>
     <use xlink:href="#DejaVuSans-6c" x="1077.507812"/>
     <use xlink:href="#DejaVuSans-61" x="1105.291016"/>
     <use xlink:href="#DejaVuSans-75" x="1166.570312"/>
     <use xlink:href="#DejaVuSans-66" x="1229.949219"/>
     <use xlink:href="#DejaVuSans-20" x="1265.154297"/>
     <use xlink:href="#DejaVuSans-7a" x="1296.941406"/>
     <use xlink:href="#DejaVuSans-75" x="1349.431641"/>
     <use xlink:href="#DejaVuSans-20" x="1412.810547"/>
     <use xlink:href="#DejaVuSans-65" x="1444.597656"/>
     <use xlink:href="#DejaVuSans-72" x="1506.121094"/>
     <use xlink:href="#DejaVuSans-6c" x="1547.234375"/>
     <use xlink:href="#DejaVuSans-65" x="1575.017578"/>
     <use xlink:href="#DejaVuSans-69" x="1636.541016"/>
     <use xlink:href="#DejaVuSans-63" x="1664.324219"/>
     <use xlink:href="#DejaVuSans-68" x="1719.304688"/>
     <use xlink:href="#DejaVuSans-74" x="1782.683594"/>
     <use xlink:href="#DejaVuSans-65" x="1821.892578"/>
     <use xlink:href="#DejaVuSans-72" x="1883.416016"/>
     <use xlink:href="#DejaVuSans-6e" x="1922.779297"/>
     <use xlink:href="#DejaVuSans-2e" x="1986.158203"/>
    </g>
   </g>
   <g id="text_19">
    <!-- (1) -->
    <g style="fill: #ff0000" transform="translate(359.867883 38.450383) scale(0.085 -0.085)">
     <defs>
      <path id="DejaVuSans-28" d="M 1984 4856 
Q 1566 4138 1362 3434 
Q 1159 2731 1159 2009 
Q 1159 1288 1364 580 
Q 1569 -128 1984 -844 
L 1484 -844 
Q 1016 -109 783 600 
Q 550 1309 550 2009 
Q 550 2706 781 3412 
Q 1013 4119 1484 4856 
L 1984 4856 
z
" transform="scale(0.015625)"/>
      <path id="DejaVuSans-29" d="M 513 4856 
L 1013 4856 
Q 1481 4119 1714 3412 
Q 1947 2706 1947 2009 
Q 1947 1309 1714 600 
Q 1481 -109 1013 -844 
L 513 -844 
Q 928 -128 1133 580 
Q 1338 1288 1338 2009 
Q 1338 2731 1133 3434 
Q 928 4138 513 4856 
z
" transform="scale(0.015625)"/>
     </defs>
     <use xlink:href="#DejaVuSans-28"/>
     <use xlink:href="#DejaVuSans-31" x="39.013672"/>
     <use xlink:href="#DejaVuSans-29" x="102.636719"/>
    </g>
   </g>
   <g id="text_20">
    <!-- (2) -->
    <g style="fill: #ff0000" transform="translate(374.976 106.142266) scale(0.085 -0.085)">
     <use xlink:href="#DejaVuSans-28"/>
     <use xlink:href="#DejaVuSans-32" x="39.013672"/>
     <use xlink:href="#DejaVuSans-29" x="102.636719"/>
    </g>
   </g>
   <g id="text_21">
    <!-- (3) -->
    <g style="fill: #ff0000" transform="translate(367.776 181.742266) scale(0.085 -0.085)">
     <use xlink:href="#DejaVuSans-28"/>
     <use xlink:href="#DejaVuSans-33" x="39.013672"/>
     <use xlink:href="#DejaVuSans-29" x="102.636719"/>
    </g>
   </g>
   <g id="text_22">
    <!-- (4) -->
    <g style="fill: #ff0000" transform="translate(331.776 287.717266) scale(0.085 -0.085)">
     <defs>
      <path id="DejaVuSans-34" d="M 2419 4116 
L 825 1625 
L 2419 1625 
L 2419 4116 
z
M 2253 4666 
L 3047 4666 
L 3047 1625 
L 3713 1625 
L 3713 1100 
L 3047 1100 
L 3047 0 
L 2419 0 
L 2419 1100 
L 313 1100 
L 313 1709 
L 2253 4666 
z
" transform="scale(0.015625)"/>
     </defs>
     <use xlink:href="#DejaVuSans-28"/>
     <use xlink:href="#DejaVuSans-34" x="39.013672"/>
     <use xlink:href="#DejaVuSans-29" x="102.636719"/>
    </g>
   </g>
   <g id="text_23">
    <!-- (5) -->
    <g style="fill: #ff0000" transform="translate(367.776 400.442266) scale(0.085 -0.085)">
     <defs>
      <path id="DejaVuSans-35" d="M 691 4666 
L 3169 4666 
L 3169 4134 
L 1269 4134 
L 1269 2991 
Q 1406 3038 1543 3061 
Q 1681 3084 1819 3084 
Q 2600 3084 3056 2656 
Q 3513 2228 3513 1497 
Q 3513 744 3044 326 
Q 2575 -91 1722 -91 
Q 1428 -91 1123 -41 
Q 819 9 494 109 
L 494 744 
Q 775 591 1075 516 
Q 1375 441 1709 441 
Q 2250 441 2565 725 
Q 2881 1009 2881 1497 
Q 2881 1984 2565 2268 
Q 2250 2553 1709 2553 
Q 1456 2553 1204 2497 
Q 953 2441 691 2322 
L 691 4666 
z
" transform="scale(0.015625)"/>
     </defs>
     <use xlink:href="#DejaVuSans-28"/>
     <use xlink:href="#DejaVuSans-35" x="39.013672"/>
     <use xlink:href="#DejaVuSans-29" x="102.636719"/>
    </g>
   </g>
   <g id="text_24">
    <!-- (6) -->
    <g style="fill: #ff0000" transform="translate(367.776 476.042266) scale(0.085 -0.085)">
     <defs>
      <path id="DejaVuSans-36" d="M 2113 2584 
Q 1688 2584 1439 2293 
Q 1191 2003 1191 1497 
Q 1191 994 1439 701 
Q 1688 409 2113 409 
Q 2538 409 2786 701 
Q 3034 994 3034 1497 
Q 3034 2003 2786 2293 
Q 2538 2584 2113 2584 
z
M 3366 4563 
L 3366 3988 
Q 3128 4100 2886 4159 
Q 2644 4219 2406 4219 
Q 1781 4219 1451 3797 
Q 1122 3375 1075 2522 
Q 1259 2794 1537 2939 
Q 1816 3084 2150 3084 
Q 2853 3084 3261 2657 
Q 3669 2231 3669 1497 
Q 3669 778 3244 343 
Q 2819 -91 2113 -91 
Q 1303 -91 875 529 
Q 447 1150 447 2328 
Q 447 3434 972 4092 
Q 1497 4750 2381 4750 
Q 2619 4750 2861 4703 
Q 3103 4656 3366 4563 
z
" transform="scale(0.015625)"/>
     </defs>
     <use xlink:href="#DejaVuSans-28"/>
     <use xlink:href="#DejaVuSans-36" x="39.013672"/>
     <use xlink:href="#DejaVuSans-29" x="102.636719"/>
    </g>
   </g>
   <g id="text_25">
    <!-- (7) -->
    <g style="fill: #ff0000" transform="translate(331.776 582.017266) scale(0.085 -0.085)">
     <defs>
      <path id="DejaVuSans-37" d="M 525 4666 
L 3525 4666 
L 3525 4397 
L 1831 0 
L 1172 0 
L 2766 4134 
L 525 4134 
L 525 4666 
z
" transform="scale(0.015625)"/>
     </defs>
     <use xlink:href="#DejaVuSans-28"/>
     <use xlink:href="#DejaVuSans-37" x="39.013672"/>
     <use xlink:href="#DejaVuSans-29" x="102.636719"/>
    </g>
   </g>
   <g id="text_26">
    <!-- (8) -->
    <g style="fill: #ff0000" transform="translate(377.867883 702.650383) scale(0.085 -0.085)">
     <defs>
      <path id="DejaVuSans-38" d="M 2034 2216 
Q 1584 2216 1326 1975 
Q 1069 1734 1069 1313 
Q 1069 891 1326 650 
Q 1584 409 2034 409 
Q 2484 409 2743 651 
Q 3003 894 3003 1313 
Q 3003 1734 2745 1975 
Q 2488 2216 2034 2216 
z
M 1403 2484 
Q 997 2584 770 2862 
Q 544 3141 544 3541 
Q 544 4100 942 4425 
Q 1341 4750 2034 4750 
Q 2731 4750 3128 4425 
Q 3525 4100 3525 3541 
Q 3525 3141 3298 2862 
Q 3072 2584 2669 2484 
Q 3125 2378 3379 2068 
Q 3634 1759 3634 1313 
Q 3634 634 3220 271 
Q 2806 -91 2034 -91 
Q 1263 -91 848 271 
Q 434 634 434 1313 
Q 434 1759 690 2068 
Q 947 2378 1403 2484 
z
M 1172 3481 
Q 1172 3119 1398 2916 
Q 1625 2713 2034 2713 
Q 2441 2713 2670 2916 
Q 2900 3119 2900 3481 
Q 2900 3844 2670 4047 
Q 2441 4250 2034 4250 
Q 1625 4250 1398 4047 
Q 1172 3844 1172 3481 
z
" transform="scale(0.015625)"/>
     </defs>
     <use xlink:href="#DejaVuSans-28"/>
     <use xlink:href="#DejaVuSans-38" x="39.013672"/>
     <use xlink:href="#DejaVuSans-29" x="102.636719"/>
    </g>
   </g>
   <g id="text_27">
    <!-- (9) -->
    <g style="fill: #ff0000" transform="translate(533.376 585.392266) scale(0.085 -0.085)">
     <defs>
      <path id="DejaVuSans-39" d="M 703 97 
L 703 672 
Q 941 559 1184 500 
Q 1428 441 1663 441 
Q 2288 441 2617 861 
Q 2947 1281 2994 2138 
Q 2813 1869 2534 1725 
Q 2256 1581 1919 1581 
Q 1219 1581 811 2004 
Q 403 2428 403 3163 
Q 403 3881 828 4315 
Q 1253 4750 1959 4750 
Q 2769 4750 3195 4129 
Q 3622 3509 3622 2328 
Q 3622 1225 3098 567 
Q 2575 -91 1691 -91 
Q 1453 -91 1209 -44 
Q 966 3 703 97 
z
M 1959 2075 
Q 2384 2075 2632 2365 
Q 2881 2656 2881 3163 
Q 2881 3666 2632 3958 
Q 2384 4250 1959 4250 
Q 1534 4250 1286 3958 
Q 1038 3666 1038 3163 
Q 1038 2656 1286 2365 
Q 1534 2075 1959 2075 
z
" transform="scale(0.015625)"/>
     </defs>
     <use xlink:href="#DejaVuSans-28"/>
     <use xlink:href="#DejaVuSans-39" x="39.013672"/>
     <use xlink:href="#DejaVuSans-29" x="102.636719"/>
    </g>
   </g>
   <g id="text_28">
    <!-- (10) -->
    <g style="fill: #ff0000" transform="translate(140.256 287.717266) scale(0.085 -0.085)">
     <defs>
      <path id="DejaVuSans-30" d="M 2034 4250 
Q 1547 4250 1301 3770 
Q 1056 3291 1056 2328 
Q 1056 1369 1301 889 
Q 1547 409 2034 409 
Q 2525 409 2770 889 
Q 3016 1369 3016 2328 
Q 3016 3291 2770 3770 
Q 2525 4250 2034 4250 
z
M 2034 4750 
Q 2819 4750 3233 4129 
Q 3647 3509 3647 2328 
Q 3647 1150 3233 529 
Q 2819 -91 2034 -91 
Q 1250 -91 836 529 
Q 422 1150 422 2328 
Q 422 3509 836 4129 
Q 1250 4750 2034 4750 
z
" transform="scale(0.015625)"/>
     </defs>
     <use xlink:href="#DejaVuSans-28"/>
     <use xlink:href="#DejaVuSans-31" x="39.013672"/>
     <use xlink:href="#DejaVuSans-30" x="102.636719"/>
     <use xlink:href="#DejaVuSans-29" x="166.259766"/>
    </g>
   </g>
  </g>
 </g>
 <defs>
  <clipPath id="p00093d22d3">
   <rect x="3.6" y="3.6" width="551.232" height="790.02"/>
  </clipPath>
 </defs>
</svg>
